; NON-PLATED HOLES START AT T1
; THROUGH (PLATED) HOLES START AT T100
M48
INCH
T100C0.125984
T101C0.038000
T102C0.015748
T103C0.040000
T104C0.036000
T105C0.035000
%
T100
X001447Y005304
X026981Y016304
X010551Y005304
T101
X008981Y016304
X007981Y016304
X006981Y016304
X005981Y016304
X004981Y016304
X003981Y016304
X002981Y016304
T102
X005981Y015304
X015975Y003301
X009981Y014304
X009985Y015315
X006981Y014304
T103
X003981Y001304
X006603Y001304
X026603Y001304
X014981Y001304
X017091Y001304
X001225Y001304
X023981Y001304
X018469Y001304
X007981Y001304
X009603Y001304
X002603Y001304
X019847Y001304
X021225Y001304
X010981Y001304
X013603Y001304
X027981Y001304
X022603Y001304
T104
X016981Y014304
X024981Y008304
X015981Y014304
X018981Y008304
X013981Y014304
X021981Y008304
X017981Y008304
X012981Y014304
X020981Y008304
X014981Y008304
X024981Y014304
X018981Y014304
X026981Y008304
X021981Y014304
X017981Y014304
X025981Y008304
X020981Y014304
X023981Y008304
X019981Y008304
X014981Y014304
X022981Y008304
X016981Y008304
X015981Y008304
X026981Y014304
X025981Y014304
X013981Y008304
X012981Y008304
X023981Y014304
X019981Y014304
X022981Y014304
T105
X013981Y006304
X012981Y006304
X008981Y008304
X007981Y008304
X006981Y008304
X014981Y006304
T00
M30
