G04 MADE WITH FRITZING*
G04 WWW.FRITZING.ORG*
G04 DOUBLE SIDED*
G04 HOLES PLATED*
G04 CONTOUR ON CENTER OF CONTOUR VECTOR*
%ASAXBY*%
%FSLAX23Y23*%
%MOIN*%
%OFA0B0*%
%SFA1.0B1.0*%
%ADD10C,0.039370*%
%ADD11C,0.204725*%
%ADD12C,0.080000*%
%ADD13C,0.070000*%
%ADD14C,0.075000*%
%ADD15C,0.078000*%
%ADD16R,0.080000X0.080000*%
%ADD17R,0.070000X0.069972*%
%ADD18C,0.032000*%
%ADD19C,0.024000*%
%LNCOPPER0*%
G90*
G70*
G54D10*
X1598Y330D03*
X598Y1530D03*
X999Y1532D03*
X698Y1430D03*
X998Y1430D03*
G54D11*
X2698Y1630D03*
X145Y530D03*
X1055Y530D03*
G54D12*
X2798Y130D03*
X2660Y130D03*
G54D13*
X1298Y830D03*
X1398Y830D03*
X1498Y830D03*
X1598Y830D03*
X1698Y830D03*
X1798Y830D03*
X1898Y830D03*
X1998Y830D03*
X2098Y830D03*
X2198Y830D03*
X2298Y830D03*
X2398Y830D03*
X2498Y830D03*
X2598Y830D03*
X2698Y830D03*
X1298Y1430D03*
X1398Y1430D03*
X1498Y1430D03*
X1598Y1430D03*
X1698Y1430D03*
X1798Y1430D03*
X1898Y1430D03*
X1998Y1430D03*
X2098Y1430D03*
X2198Y1430D03*
X2298Y1430D03*
X2398Y1430D03*
X2498Y1430D03*
X2598Y1430D03*
X2698Y1430D03*
G54D14*
X1498Y630D03*
X1398Y630D03*
X1298Y630D03*
X898Y830D03*
X798Y830D03*
X698Y830D03*
G54D12*
X2398Y130D03*
X2260Y130D03*
X2123Y130D03*
X1985Y130D03*
X1847Y130D03*
X1709Y130D03*
X1098Y130D03*
X960Y130D03*
X798Y130D03*
X660Y130D03*
X398Y130D03*
X260Y130D03*
X123Y130D03*
G54D15*
X298Y1630D03*
X398Y1630D03*
X498Y1630D03*
X598Y1630D03*
X698Y1630D03*
X798Y1630D03*
X898Y1630D03*
G54D12*
X1498Y130D03*
X1360Y130D03*
G54D16*
X2798Y130D03*
G54D17*
X1298Y830D03*
G54D16*
X2398Y130D03*
X1098Y130D03*
X798Y130D03*
X398Y130D03*
X1498Y130D03*
G54D18*
X498Y229D02*
X1598Y230D01*
D02*
X399Y131D02*
X498Y229D01*
D02*
X1598Y230D02*
X1682Y155D01*
D02*
X1799Y330D02*
X2498Y330D01*
D02*
X2498Y330D02*
X2637Y159D01*
D02*
X1622Y330D02*
X1799Y330D01*
D02*
X1598Y796D02*
X1598Y355D01*
D02*
X1799Y330D02*
X1838Y166D01*
D02*
X1398Y1465D02*
X1398Y1630D01*
D02*
X1398Y1630D02*
X1297Y1731D01*
X1297Y1731D02*
X398Y1731D01*
D02*
X398Y1731D02*
X323Y1656D01*
D02*
X198Y330D02*
X198Y230D01*
D02*
X398Y530D02*
X198Y330D01*
D02*
X399Y1430D02*
X398Y530D01*
D02*
X198Y230D02*
X145Y160D01*
D02*
X298Y1530D02*
X399Y1430D01*
D02*
X298Y1595D02*
X298Y1530D01*
D02*
X399Y1530D02*
X597Y1329D01*
D02*
X597Y1329D02*
X597Y1329D01*
D02*
X597Y1329D02*
X1499Y1329D01*
D02*
X1499Y1329D02*
X1574Y1406D01*
D02*
X398Y1595D02*
X399Y1530D01*
D02*
X399Y331D02*
X399Y131D01*
D02*
X598Y530D02*
X399Y331D01*
D02*
X399Y131D02*
X432Y145D01*
D02*
X597Y1329D02*
X598Y530D01*
G54D19*
D02*
X617Y1531D02*
X980Y1531D01*
D02*
X979Y1430D02*
X717Y1430D01*
G04 End of Copper0*
M02*